<mxfile host="65bd71144e">
    <diagram name="Page-1" id="n8qG3aCjgZjPpgpLRiSz">
        <mxGraphModel dx="2029" dy="1772" grid="1" gridSize="10" guides="1" tooltips="1" connect="1" arrows="1" fold="1" page="1" pageScale="1" pageWidth="850" pageHeight="1100" math="0" shadow="0">
            <root>
                <mxCell id="0"/>
                <mxCell id="1" parent="0"/>
                <mxCell id="2" value="Store" style="whiteSpace=wrap;strokeWidth=2;verticalAlign=top;" parent="1" vertex="1">
                    <mxGeometry x="146" width="328" height="100" as="geometry"/>
                </mxCell>
                <mxCell id="3" value="Go buy the missing item" style="whiteSpace=wrap;strokeWidth=2;" parent="1" vertex="1">
                    <mxGeometry x="213" y="33" width="227" height="33" as="geometry"/>
                </mxCell>
                <mxCell id="5" value="Prepare for brushing teeth" style="whiteSpace=wrap;strokeWidth=2;" parent="1" vertex="1">
                    <mxGeometry x="34" y="150" width="205" height="33" as="geometry"/>
                </mxCell>
                <mxCell id="6" value="Check if everything (toothbrush,&#10;Â tootpaste, water) is available" style="rhombus;strokeWidth=2;whiteSpace=wrap;" parent="1" vertex="1">
                    <mxGeometry y="233" width="273" height="273" as="geometry"/>
                </mxCell>
                <mxCell id="7" value="Get a glass of water" style="whiteSpace=wrap;strokeWidth=2;" parent="1" vertex="1">
                    <mxGeometry x="36" y="630" width="160" height="33" as="geometry"/>
                </mxCell>
                <mxCell id="8" value="Take out toothbrush" style="whiteSpace=wrap;strokeWidth=2;" parent="1" vertex="1">
                    <mxGeometry x="36" y="768" width="159" height="33" as="geometry"/>
                </mxCell>
                <mxCell id="9" value="Take out toothpaste" style="whiteSpace=wrap;strokeWidth=2;" parent="1" vertex="1">
                    <mxGeometry x="36" y="852" width="159" height="33" as="geometry"/>
                </mxCell>
                <mxCell id="10" value="Brush teeth" style="whiteSpace=wrap;strokeWidth=2;" parent="1" vertex="1">
                    <mxGeometry x="67" y="935" width="98" height="33" as="geometry"/>
                </mxCell>
                <mxCell id="13" value="" style="curved=1;startArrow=none;endArrow=block;exitX=0.5;exitY=1;entryX=0.4;entryY=0;exitDx=0;exitDy=0;" parent="1" source="30" target="5" edge="1">
                    <mxGeometry relative="1" as="geometry">
                        <Array as="points">
                            <mxPoint x="86" y="125"/>
                        </Array>
                    </mxGeometry>
                </mxCell>
                <mxCell id="14" value="" style="curved=1;startArrow=none;endArrow=block;exitX=0.5;exitY=1.01;entryX=0.5;entryY=0;" parent="1" source="5" target="6" edge="1">
                    <mxGeometry relative="1" as="geometry">
                        <Array as="points"/>
                    </mxGeometry>
                </mxCell>
                <mxCell id="15" value="Yes" style="curved=1;startArrow=none;endArrow=block;exitX=0;exitY=0.5;entryX=0.5;entryY=-0.01;exitDx=0;exitDy=0;" parent="1" source="6" target="7" edge="1">
                    <mxGeometry relative="1" as="geometry">
                        <Array as="points">
                            <mxPoint y="480"/>
                            <mxPoint x="116" y="540"/>
                        </Array>
                    </mxGeometry>
                </mxCell>
                <mxCell id="16" value="No" style="curved=1;startArrow=none;endArrow=block;exitX=1;exitY=0.5;entryX=0;entryY=0.5;exitDx=0;exitDy=0;entryDx=0;entryDy=0;" parent="1" source="6" target="28" edge="1">
                    <mxGeometry relative="1" as="geometry">
                        <Array as="points">
                            <mxPoint x="250" y="580"/>
                        </Array>
                    </mxGeometry>
                </mxCell>
                <mxCell id="17" value="" style="curved=1;startArrow=none;endArrow=block;exitX=0.5;exitY=1.01;entryX=0.5;entryY=0.01;" parent="1" source="7" target="8" edge="1">
                    <mxGeometry relative="1" as="geometry">
                        <Array as="points"/>
                    </mxGeometry>
                </mxCell>
                <mxCell id="18" value="" style="curved=1;startArrow=none;endArrow=block;exitX=0.5;exitY=1.02;entryX=0.5;entryY=-0.01;" parent="1" source="8" target="9" edge="1">
                    <mxGeometry relative="1" as="geometry">
                        <Array as="points"/>
                    </mxGeometry>
                </mxCell>
                <mxCell id="19" value="" style="curved=1;startArrow=none;endArrow=block;exitX=0.5;exitY=1;entryX=0.5;entryY=0;" parent="1" source="9" target="10" edge="1">
                    <mxGeometry relative="1" as="geometry">
                        <Array as="points"/>
                    </mxGeometry>
                </mxCell>
                <mxCell id="20" value="" style="curved=1;startArrow=none;endArrow=block;exitX=0.5;exitY=1.02;entryX=0.5;entryY=0;entryDx=0;entryDy=0;" parent="1" source="10" target="23" edge="1">
                    <mxGeometry relative="1" as="geometry">
                        <Array as="points"/>
                    </mxGeometry>
                </mxCell>
                <mxCell id="21" value="" style="curved=1;startArrow=none;endArrow=block;exitX=1;exitY=0.5;entryX=0.59;entryY=1.02;exitDx=0;exitDy=0;" parent="1" source="28" target="3" edge="1">
                    <mxGeometry relative="1" as="geometry">
                        <Array as="points">
                            <mxPoint x="500" y="560"/>
                            <mxPoint x="440" y="320"/>
                            <mxPoint x="390" y="100"/>
                        </Array>
                    </mxGeometry>
                </mxCell>
                <mxCell id="22" value="" style="curved=1;startArrow=none;endArrow=block;exitX=0.37;exitY=1.02;entryX=0.7;entryY=0;" parent="1" source="3" target="5" edge="1">
                    <mxGeometry relative="1" as="geometry">
                        <Array as="points">
                            <mxPoint x="241" y="100"/>
                            <mxPoint x="241" y="125"/>
                        </Array>
                    </mxGeometry>
                </mxCell>
                <mxCell id="23" value="feeling fresh" style="rhombus;strokeWidth=2;whiteSpace=wrap;" vertex="1" parent="1">
                    <mxGeometry x="165" y="1020" width="144" height="144" as="geometry"/>
                </mxCell>
                <mxCell id="26" value="yes&#10;" style="curved=1;startArrow=none;endArrow=block;exitX=0;exitY=0.5;exitDx=0;exitDy=0;entryX=0.5;entryY=0;entryDx=0;entryDy=0;" edge="1" parent="1" source="23" target="31">
                    <mxGeometry relative="1" as="geometry">
                        <Array as="points">
                            <mxPoint x="48.84000000000003" y="1198.6599999999999"/>
                        </Array>
                        <mxPoint x="-40.00210526315789" y="1100.002105263158" as="sourcePoint"/>
                        <mxPoint x="40" y="1199" as="targetPoint"/>
                    </mxGeometry>
                </mxCell>
                <mxCell id="27" value="No" style="curved=1;startArrow=none;endArrow=block;exitX=1;exitY=0.5;exitDx=0;exitDy=0;entryX=1;entryY=0.5;entryDx=0;entryDy=0;" edge="1" parent="1" source="23" target="7">
                    <mxGeometry relative="1" as="geometry">
                        <Array as="points">
                            <mxPoint x="420" y="1198.6599999999999"/>
                        </Array>
                        <mxPoint x="331.1578947368422" y="1100.0021052631578" as="sourcePoint"/>
                        <mxPoint x="190" y="700" as="targetPoint"/>
                    </mxGeometry>
                </mxCell>
                <mxCell id="28" value="Go to store" style="rounded=0;whiteSpace=wrap;html=1;" vertex="1" parent="1">
                    <mxGeometry x="320" y="560" width="120" height="60" as="geometry"/>
                </mxCell>
                <mxCell id="30" value="Start" style="rounded=1;whiteSpace=wrap;html=1;" vertex="1" parent="1">
                    <mxGeometry y="19.5" width="120" height="60" as="geometry"/>
                </mxCell>
                <mxCell id="31" value="Done" style="rounded=1;whiteSpace=wrap;html=1;" vertex="1" parent="1">
                    <mxGeometry y="1180" width="120" height="60" as="geometry"/>
                </mxCell>
            </root>
        </mxGraphModel>
    </diagram>
</mxfile>